# xmcd
#
# Track frame offsets: 
#        150
#        19477
#        39899
#        57311
#        76360
#        92854
#        117160
#        135590
#        156320
#        173922
#        192717
#
# Disc length: 2864 seconds
#
# Revision: 1
# Processed by: cddbd v1.5.2PL0 Copyright (c) Steve Scherf et al.
# Submitted via: ExactAudioCopy v1.0b3
#
DISCID=940b2e0b
DTITLE=Eric Roberson - Presents: The Vault Vol. 1
DYEAR=2003
DGENRE=Soul
TTITLE0=She Couldn't Hear Me
TTITLE1=Past Paradise
TTITLE2=Rock With You
TTITLE3=Please Don't Leave Me
TTITLE4=Hold On
TTITLE5=Rain On My Parade
TTITLE6=Rebound
TTITLE7=Should We Try
TTITLE8=One Time (feat. Jill Scott)
TTITLE9=When Love Calls
TTITLE10=Be With You
EXTD=
EXTT0=
EXTT1=
EXTT2=
EXTT3=
EXTT4=
EXTT5=
EXTT6=
EXTT7=
EXTT8=
EXTT9=
EXTT10=
PLAYORDER=
